<?xml version="1.0" encoding="UTF-8" standalone="no"?>
<!-- Created with Inkscape (http://www.inkscape.org/) -->

<svg
   width="50mm"
   height="50mm"
   viewBox="0 0 50 50"
   version="1.1"
   id="svg589"
   inkscape:version="1.2.2 (732a01da63, 2022-12-09)"
   sodipodi:docname="musicstore.svg"
   xmlns:inkscape="http://www.inkscape.org/namespaces/inkscape"
   xmlns:sodipodi="http://sodipodi.sourceforge.net/DTD/sodipodi-0.dtd"
   xmlns="http://www.w3.org/2000/svg"
   xmlns:svg="http://www.w3.org/2000/svg"
   xmlns:rdf="http://www.w3.org/1999/02/22-rdf-syntax-ns#"
   xmlns:cc="http://creativecommons.org/ns#"
   xmlns:dc="http://purl.org/dc/elements/1.1/">
  <title
     id="title28319">Music Store Icon</title>
  <sodipodi:namedview
     id="namedview591"
     pagecolor="#505050"
     bordercolor="#eeeeee"
     borderopacity="1"
     inkscape:showpageshadow="0"
     inkscape:pageopacity="0"
     inkscape:pagecheckerboard="false"
     inkscape:deskcolor="#505050"
     inkscape:document-units="mm"
     showgrid="false"
     inkscape:zoom="2.651125"
     inkscape:cx="22.066104"
     inkscape:cy="175.39724"
     inkscape:window-width="2560"
     inkscape:window-height="1417"
     inkscape:window-x="1912"
     inkscape:window-y="-8"
     inkscape:window-maximized="1"
     inkscape:current-layer="layer1" />
  <defs
     id="defs586">
    <linearGradient
       id="linearGradient9290-1">
      <stop
         style="stop-color:#808080;stop-opacity:1;"
         offset="0"
         id="stop9299" />
      <stop
         style="stop-color:#525252;stop-opacity:1;"
         offset="0.20527598"
         id="stop9301" />
    </linearGradient>
    <linearGradient
       id="linearGradient9290">
      <stop
         style="stop-color:#808080;stop-opacity:1;"
         offset="0.25867507"
         id="stop9294" />
      <stop
         style="stop-color:#525252;stop-opacity:1;"
         offset="0.89378059"
         id="stop9296" />
    </linearGradient>
    <linearGradient
       id="linearGradient9290-2">
      <stop
         style="stop-color:#808080;stop-opacity:1;"
         offset="0"
         id="stop9286" />
      <stop
         style="stop-color:#525252;stop-opacity:1;"
         offset="0.20527598"
         id="stop9288" />
    </linearGradient>
  </defs>
  <g
     inkscape:label="Layer 1"
     inkscape:groupmode="layer"
     id="layer1">
    <g
       id="g8975"
       transform="translate(0,-1.626073)"
       style="stroke:#0f1324;stroke-opacity:1">
      <rect
         style="fill:none;stroke:#0f1324;stroke-width:5;stroke-dasharray:none;stroke-opacity:1"
         id="rect1615"
         width="42.295349"
         height="27.973993"
         x="3.8523254"
         y="18.198633"
         ry="1.4113908" />
      <rect
         style="fill:none;stroke:#0f1324;stroke-width:4.99999;stroke-dasharray:none;stroke-opacity:1"
         id="rect8905"
         width="16.217566"
         height="11.127745"
         x="16.891216"
         y="7.0795145"
         ry="1.693669" />
    </g>
    <rect
       style="opacity:0.99;fill:#000000;fill-rule:nonzero;stroke:none;stroke-width:5.0032;stroke-dasharray:none;stroke-opacity:1"
       id="rect10077"
       width="14.779558"
       height="2.6154482"
       x="17.78529"
       y="25.45878"
       transform="matrix(0.99304593,-0.11772756,0,1,0,0)"
       ry="0.95404202" />
    <path
       style="opacity:0.99;fill:#000000;fill-rule:nonzero;stroke:none;stroke-width:4.99999;stroke-dasharray:none;stroke-opacity:1"
       d="m 18.947921,24.840477 0.03528,12.773086"
       id="path10878" />
    <path
       style="opacity:0.99;fill:#000000;fill-rule:nonzero;stroke:none;stroke-width:4.99999;stroke-dasharray:none;stroke-opacity:1"
       d="M 22.617537,33.732239 19.124345,27.169271"
       id="path10880" />
    <path
       style="opacity:0.99;fill:#000000;fill-rule:nonzero;stroke:none;stroke-width:4.99999;stroke-dasharray:none;stroke-opacity:1"
       d="M 19.15963,33.696955 14.996027,30.203761"
       id="path10882" />
    <rect
       style="opacity:0.99;fill:#000000;fill-rule:nonzero;stroke:none;stroke-width:5.60644;stroke-dasharray:none;stroke-opacity:1"
       id="rect11008"
       width="2.5052166"
       height="15.216558"
       x="17.642384"
       y="23.340874"
       ry="0.97769099" />
    <ellipse
       style="opacity:0.99;fill:#000000;fill-rule:nonzero;stroke:none;stroke-width:7.21117;stroke-dasharray:none;stroke-opacity:1"
       id="path11062"
       cx="16.556307"
       cy="37.766106"
       rx="3.5902255"
       ry="3.0344903" />
    <rect
       style="opacity:0.99;fill:#000000;fill-rule:nonzero;stroke:none;stroke-width:5.60644;stroke-dasharray:none;stroke-opacity:1"
       id="rect11074"
       width="2.5052166"
       height="15.216558"
       x="29.859293"
       y="21.826441"
       ry="0.97769099" />
    <ellipse
       style="opacity:0.99;fill:#000000;fill-rule:nonzero;stroke:none;stroke-width:7.21117;stroke-dasharray:none;stroke-opacity:1"
       id="ellipse11076"
       cx="28.773216"
       cy="36.251671"
       rx="3.5902255"
       ry="3.0344903" />
    <path
       style="opacity:0.99;fill:#34454d;fill-rule:nonzero;stroke:none;stroke-width:5.04037;stroke-dasharray:none;stroke-opacity:1;fill-opacity:1"
       d="M 24.004757,115.48955 V 72.14763 h 70.413952 70.413951 v 43.34192 43.34192 H 94.418709 24.004757 Z m 43.789666,37.94216 c 4.362144,-1.60341 7.322752,-4.6776 8.210293,-8.52529 0.163171,-0.70738 0.266517,-10.02922 0.270545,-24.40379 l 0.0065,-23.259194 0.866838,-0.143787 c 1.122546,-0.186203 34.901121,-4.152831 35.340341,-4.150026 0.2631,0.0017 0.3334,3.482782 0.3334,16.510647 v 16.50853 l -1.0002,-0.23227 c -1.57823,-0.3665 -5.13924,-0.28323 -6.87867,0.16085 -6.56844,1.67693 -10.6178,6.98909 -9.6951,12.71853 0.716609,4.44974 4.723179,8.34585 9.8391,9.56785 0.80683,0.19272 2.54717,0.34791 3.86743,0.34488 5.58119,-0.0128 10.37419,-2.80971 12.51106,-7.30066 l 0.82492,-1.73367 0.0799,-27.07203 c 0.0533,-18.066063 -0.0117,-27.387899 -0.19555,-28.021525 -0.37017,-1.275858 -1.34678,-2.135763 -2.59203,-2.282278 -0.56453,-0.06642 -12.04316,1.195283 -25.508072,2.803789 -26.488929,3.164343 -25.569864,2.999149 -26.794264,4.816036 l -0.601026,0.891861 v 20.529067 20.52907 l -0.600119,-0.16776 c -0.330065,-0.0923 -1.500297,-0.23803 -2.600515,-0.32391 -4.043806,-0.31565 -8.545237,1.29781 -11.296428,4.049 -4.421667,4.42166 -4.390407,10.69395 0.07499,15.04792 2.945824,2.8723 6.337744,4.08031 10.954715,3.90144 2.111501,-0.0818 3.238839,-0.2696 4.581897,-0.76328 z"
       id="path11287"
       transform="scale(0.26458333)" />
  </g>
  <metadata
     id="metadata28317">
    <rdf:RDF>
      <cc:Work
         rdf:about="">
        <dc:title>Music Store Icon</dc:title>
      </cc:Work>
    </rdf:RDF>
  </metadata>
</svg>
